<svg xmlns="http://www.w3.org/2000/svg" width="406" height="406" fill="none" viewBox="0 0 406 406"><g filter="url(#filter0_d_103_25)"><rect width="405.443" height="405.443" fill="url(#paint0_linear_103_25)" rx="80.365"/><rect width="399.014" height="399.014" x="3.215" y="3.215" stroke="url(#paint1_linear_103_25)" stroke-width="6.429" rx="77.151"/></g><rect width="343.963" height="343.963" x="30.941" y="30.941" fill="url(#paint2_linear_103_25)" rx="51.032"/><g style="mix-blend-mode:overlay"><path fill="#fff" fill-opacity=".4" fill-rule="evenodd" d="M119.716 283.689L104.108 299.297C99.3421 294.432 94.9337 289.215 90.9249 283.689H119.716ZM121.753 281.652L121.725 281.68H89.4944C73.8631 259.307 64.694 232.085 64.694 202.721L64.6942 202.521H121.753V281.652ZM121.753 284.493L105.524 300.723C110.566 305.723 115.992 310.338 121.753 314.518V284.493ZM102.687 300.718L27.109 376.296L28.5296 377.717L104.103 302.143C109.563 307.559 115.466 312.528 121.753 316.991L121.753 399.014H123.762L123.762 318.391C146.242 333.766 173.431 342.758 202.721 342.758L202.922 342.758V399.014H204.931V342.741C234.43 342.284 261.715 332.707 284.091 316.705V399.014H286.1V315.241C292.024 310.844 297.589 305.991 302.742 300.733L377.315 375.306L378.736 373.885L304.138 299.287C308.784 294.41 313.082 289.197 316.991 283.689H399.014V281.68H318.391C333.766 259.201 342.758 232.011 342.758 202.721L342.758 202.521H399.014V200.511H342.741C342.284 171.013 332.707 143.728 316.705 121.352L399.014 121.352V119.342L315.241 119.342C311.24 113.952 306.861 108.859 302.143 104.103L377.315 28.9315L375.894 27.5108L300.718 102.687C296.141 98.2022 291.257 94.029 286.1 90.2019V6.4292L284.091 6.4292L284.091 88.738C261.715 72.7357 234.43 63.1584 204.931 62.702V6.4292L202.922 6.4292V62.685L202.721 62.6849C173.431 62.6849 146.242 71.6772 123.762 87.0518L123.762 6.4292L121.753 6.4292L121.753 88.4518C116.246 92.3613 111.033 96.659 106.155 101.305L29.9503 25.0998L28.5297 26.5205L104.71 102.701C99.4522 107.854 94.5987 113.419 90.2019 119.342L6.4292 119.342L6.4292 121.352L88.738 121.352C72.7357 143.728 63.1584 171.013 62.702 200.511H6.4292L6.4292 202.521H62.6851L62.6849 202.721C62.6849 232.011 71.6772 259.201 87.0517 281.68H6.4292L6.4292 283.689H88.4517C92.7461 289.739 97.5088 295.433 102.687 300.718ZM299.297 104.108C295.145 100.041 290.738 96.2343 286.1 92.7142V117.305L299.297 104.108ZM284.091 119.314L284.063 119.342H204.931V64.7114C234.509 65.1757 261.829 74.9436 284.091 91.2175V119.314ZM282.054 121.352L204.931 198.474V121.352H282.054ZM205.735 200.511L284.091 122.155V200.511H205.735ZM202.922 203.324V281.68H124.566L202.922 203.324ZM200.885 202.521L123.762 279.643V202.521L200.885 202.521ZM286.904 119.342L300.723 105.524C305.02 109.857 309.032 114.473 312.729 119.342H286.904ZM314.518 283.689C310.899 288.677 306.955 293.413 302.717 297.866L288.54 283.689H314.518ZM301.321 299.312L286.1 284.091V312.729C291.499 308.631 296.586 304.145 301.321 299.312ZM286.1 281.25L286.531 281.68H315.949C331.58 259.307 340.749 232.085 340.749 202.721L340.749 202.521H286.1V281.25ZM207.371 202.521L284.091 279.241V202.521H207.371ZM283.689 281.68L204.931 202.922V281.68H283.689ZM126.202 121.352L202.922 198.072V121.352H126.202ZM202.521 200.511L123.762 121.753V200.511H202.521ZM123.762 118.912L124.193 119.342H202.922V64.6942L202.721 64.694C173.358 64.694 146.136 73.8631 123.762 89.4944V118.912ZM107.577 102.726L121.753 116.903V90.9249C116.766 94.5434 112.03 98.4875 107.577 102.726ZM121.352 119.342L106.131 104.122C101.298 108.857 96.8121 113.944 92.7142 119.342H121.352ZM64.7114 200.511H121.753V121.352H91.2175C74.9437 143.614 65.1757 170.933 64.7114 200.511ZM314.225 121.352H286.1V200.511H340.732C340.267 170.933 330.499 143.614 314.225 121.352ZM284.091 314.225V283.689H204.931V340.731C234.509 340.267 261.829 330.499 284.091 314.225ZM202.922 340.749V283.689L123.762 283.689V315.948C146.136 331.58 173.358 340.749 202.721 340.749L202.922 340.749Z" clip-rule="evenodd"/></g><g filter="url(#filter1_f_103_25)"><circle cx="307.849" cy="110.849" r="10.849" fill="#fff" fill-opacity=".3"/></g><g filter="url(#filter2_f_103_25)"><circle cx="307.849" cy="110.849" r="4.018" fill="#fff"/></g><g style="mix-blend-mode:overlay"><circle cx="58.265" cy="58.265" r="58.265" fill="#EDF1F2" fill-opacity=".3" transform="matrix(-1 0 0 1 261.187 145.059)"/></g><path fill="#fff" d="M97.9258 111.807H159.852L202.449 215.614H204.596L247.193 111.807H309.119V295.08H260.437V189.125H259.005L218.199 293.648H188.846L148.039 188.409H146.608V295.08H97.9258V111.807Z"/><defs><filter id="filter0_d_103_25" width="485.808" height="485.808" x="-40.183" y="-20.091" color-interpolation-filters="sRGB" filterUnits="userSpaceOnUse"><feFlood flood-opacity="0" result="BackgroundImageFix"/><feColorMatrix in="SourceAlpha" result="hardAlpha" type="matrix" values="0 0 0 0 0 0 0 0 0 0 0 0 0 0 0 0 0 0 127 0"/><feOffset dy="20.091"/><feGaussianBlur stdDeviation="20.091"/><feComposite in2="hardAlpha" operator="out"/><feColorMatrix type="matrix" values="0 0 0 0 0 0 0 0 0 0 0 0 0 0 0 0 0 0 0.55 0"/><feBlend in2="BackgroundImageFix" mode="normal" result="effect1_dropShadow_103_25"/><feBlend in="SourceGraphic" in2="effect1_dropShadow_103_25" mode="normal" result="shape"/></filter><filter id="filter1_f_103_25" width="40.986" height="40.986" x="287.356" y="90.356" color-interpolation-filters="sRGB" filterUnits="userSpaceOnUse"><feFlood flood-opacity="0" result="BackgroundImageFix"/><feBlend in="SourceGraphic" in2="BackgroundImageFix" mode="normal" result="shape"/><feGaussianBlur result="effect1_foregroundBlur_103_25" stdDeviation="4.822"/></filter><filter id="filter2_f_103_25" width="15.269" height="15.269" x="300.214" y="103.215" color-interpolation-filters="sRGB" filterUnits="userSpaceOnUse"><feFlood flood-opacity="0" result="BackgroundImageFix"/><feBlend in="SourceGraphic" in2="BackgroundImageFix" mode="normal" result="shape"/><feGaussianBlur result="effect1_foregroundBlur_103_25" stdDeviation="1.808"/></filter><linearGradient id="paint0_linear_103_25" x1="352.402" x2="117.735" y1="0" y2="202.922" gradientUnits="userSpaceOnUse"><stop stop-color="#ACAEAE"/><stop offset=".332" stop-color="#818483"/><stop offset="1" stop-color="#101211"/></linearGradient><linearGradient id="paint1_linear_103_25" x1="356.822" x2="72.128" y1="18.685" y2="298.557" gradientUnits="userSpaceOnUse"><stop stop-color="#EBFCF6"/><stop offset=".295" stop-color="#8F8F8F"/><stop offset=".576" stop-color="#1D1E1D"/><stop offset=".975" stop-color="#202020"/></linearGradient><linearGradient id="paint2_linear_103_25" x1="319.05" x2="176" y1="66.301" y2="271.233" gradientUnits="userSpaceOnUse"><stop stop-color="#474B49"/><stop offset=".53" stop-color="#1C1C1C"/><stop offset="1" stop-color="#101211"/></linearGradient></defs></svg>