<svg xmlns="http://www.w3.org/2000/svg" width="487" height="487" fill="none" viewBox="0 0 487 487"><g filter="url(#filter0_d_103_25)"><rect width="405.443" height="405.443" x="41" y="21" fill="url(#paint0_linear_103_25)" rx="80.365"/><rect width="399.014" height="399.014" x="44.215" y="24.215" stroke="url(#paint1_linear_103_25)" stroke-width="6.429" rx="77.151"/></g><rect width="343.963" height="343.963" x="71.941" y="51.941" fill="url(#paint2_linear_103_25)" rx="51.032"/><g style="mix-blend-mode:overlay"><path fill="#fff" fill-opacity=".4" fill-rule="evenodd" d="M160.716 304.689L145.108 320.297C140.342 315.432 135.934 310.215 131.925 304.689H160.716ZM162.753 302.652L162.725 302.68H130.494C114.863 280.307 105.694 253.085 105.694 223.721L105.694 223.521H162.753V302.652ZM162.753 305.493L146.524 321.723C151.566 326.723 156.992 331.338 162.753 335.518V305.493ZM143.687 321.718L68.109 397.296L69.5296 398.717L145.103 323.143C150.563 328.559 156.466 333.528 162.753 337.991L162.753 420.014H164.762L164.762 339.391C187.242 354.766 214.431 363.758 243.721 363.758L243.922 363.758V420.014H245.931V363.741C275.43 363.284 302.715 353.707 325.091 337.705V420.014H327.1V336.241C333.024 331.844 338.589 326.991 343.742 321.733L418.315 396.306L419.736 394.885L345.138 320.287C349.784 315.41 354.082 310.197 357.991 304.689H440.014V302.68H359.391C374.766 280.201 383.758 253.011 383.758 223.721L383.758 223.521H440.014V221.511H383.741C383.284 192.013 373.707 164.728 357.705 142.352L440.014 142.352V140.342L356.241 140.342C352.24 134.952 347.861 129.859 343.143 125.103L418.315 49.9315L416.894 48.5108L341.718 123.687C337.141 119.202 332.257 115.029 327.1 111.202V27.4292L325.091 27.4292L325.091 109.738C302.715 93.7357 275.43 84.1584 245.931 83.702V27.4292L243.922 27.4292V83.685L243.721 83.6849C214.431 83.6849 187.242 92.6772 164.762 108.052L164.762 27.4292L162.753 27.4292L162.753 109.452C157.246 113.361 152.033 117.659 147.155 122.305L70.9503 46.0998L69.5297 47.5205L145.71 123.701C140.452 128.854 135.599 134.419 131.202 140.342L47.4292 140.342L47.4292 142.352L129.738 142.352C113.736 164.728 104.158 192.013 103.702 221.511H47.4292L47.4292 223.521H103.685L103.685 223.721C103.685 253.011 112.677 280.201 128.052 302.68H47.4292L47.4292 304.689H129.452C133.746 310.739 138.509 316.433 143.687 321.718ZM340.297 125.108C336.145 121.041 331.738 117.234 327.1 113.714V138.305L340.297 125.108ZM325.091 140.314L325.063 140.342H245.931V85.7114C275.509 86.1757 302.829 95.9436 325.091 112.217V140.314ZM323.054 142.352L245.931 219.474V142.352H323.054ZM246.735 221.511L325.091 143.155V221.511H246.735ZM243.922 224.324V302.68H165.566L243.922 224.324ZM241.885 223.521L164.762 300.643V223.521L241.885 223.521ZM327.904 140.342L341.723 126.524C346.02 130.857 350.032 135.473 353.729 140.342H327.904ZM355.518 304.689C351.899 309.677 347.955 314.413 343.717 318.866L329.54 304.689H355.518ZM342.321 320.312L327.1 305.091V333.729C332.499 329.631 337.586 325.145 342.321 320.312ZM327.1 302.25L327.531 302.68H356.949C372.58 280.307 381.749 253.085 381.749 223.721L381.749 223.521H327.1V302.25ZM248.371 223.521L325.091 300.241V223.521H248.371ZM324.689 302.68L245.931 223.922V302.68H324.689ZM167.202 142.352L243.922 219.072V142.352H167.202ZM243.521 221.511L164.762 142.753V221.511H243.521ZM164.762 139.912L165.193 140.342H243.922V85.6942L243.721 85.694C214.358 85.694 187.136 94.8631 164.762 110.494V139.912ZM148.577 123.726L162.753 137.903V111.925C157.766 115.543 153.03 119.488 148.577 123.726ZM162.352 140.342L147.131 125.122C142.298 129.857 137.812 134.944 133.714 140.342H162.352ZM105.711 221.511H162.753V142.352H132.217C115.944 164.614 106.176 191.933 105.711 221.511ZM355.225 142.352H327.1V221.511H381.731C381.267 191.933 371.499 164.614 355.225 142.352ZM325.091 335.225V304.689H245.931V361.731C275.509 361.267 302.829 351.499 325.091 335.225ZM243.922 361.749V304.689L164.762 304.689V336.948C187.136 352.58 214.358 361.749 243.721 361.749L243.922 361.749Z" clip-rule="evenodd"/></g><g filter="url(#filter1_f_103_25)"><circle cx="348.849" cy="131.849" r="10.849" fill="#fff" fill-opacity=".3"/></g><g filter="url(#filter2_f_103_25)"><circle cx="348.849" cy="131.849" r="4.018" fill="#fff"/></g><g style="mix-blend-mode:overlay"><circle cx="58.265" cy="58.265" r="58.265" fill="#EDF1F2" fill-opacity=".3" transform="matrix(-1 0 0 1 302.187 166.059)"/></g><path fill="url(#paint3_linear_103_25)" d="M138.926 132.807H200.852L243.449 236.614H245.596L288.193 132.807H350.119V316.08H301.437V210.125H300.005L259.199 314.648H229.846L189.039 209.409H187.608V316.08H138.926V132.807Z"/><defs><filter id="filter0_d_103_25" width="485.808" height="485.808" x=".817" y=".909" color-interpolation-filters="sRGB" filterUnits="userSpaceOnUse"><feFlood flood-opacity="0" result="BackgroundImageFix"/><feColorMatrix in="SourceAlpha" result="hardAlpha" type="matrix" values="0 0 0 0 0 0 0 0 0 0 0 0 0 0 0 0 0 0 127 0"/><feOffset dy="20.091"/><feGaussianBlur stdDeviation="20.091"/><feComposite in2="hardAlpha" operator="out"/><feColorMatrix type="matrix" values="0 0 0 0 0 0 0 0 0 0 0 0 0 0 0 0 0 0 0.55 0"/><feBlend in2="BackgroundImageFix" mode="normal" result="effect1_dropShadow_103_25"/><feBlend in="SourceGraphic" in2="effect1_dropShadow_103_25" mode="normal" result="shape"/></filter><filter id="filter1_f_103_25" width="40.986" height="40.986" x="328.356" y="111.356" color-interpolation-filters="sRGB" filterUnits="userSpaceOnUse"><feFlood flood-opacity="0" result="BackgroundImageFix"/><feBlend in="SourceGraphic" in2="BackgroundImageFix" mode="normal" result="shape"/><feGaussianBlur result="effect1_foregroundBlur_103_25" stdDeviation="4.822"/></filter><filter id="filter2_f_103_25" width="15.269" height="15.269" x="341.214" y="124.215" color-interpolation-filters="sRGB" filterUnits="userSpaceOnUse"><feFlood flood-opacity="0" result="BackgroundImageFix"/><feBlend in="SourceGraphic" in2="BackgroundImageFix" mode="normal" result="shape"/><feGaussianBlur result="effect1_foregroundBlur_103_25" stdDeviation="1.808"/></filter><linearGradient id="paint0_linear_103_25" x1="393.402" x2="158.735" y1="21" y2="223.922" gradientUnits="userSpaceOnUse"><stop stop-color="#ACAEAE"/><stop offset=".332" stop-color="#818483"/><stop offset="1" stop-color="#101211"/></linearGradient><linearGradient id="paint1_linear_103_25" x1="397.822" x2="113.128" y1="39.685" y2="319.557" gradientUnits="userSpaceOnUse"><stop stop-color="#EBFCF6"/><stop offset=".295" stop-color="#8F8F8F"/><stop offset=".576" stop-color="#1D1E1D"/><stop offset=".975" stop-color="#202020"/></linearGradient><linearGradient id="paint2_linear_103_25" x1="360.05" x2="217" y1="87.301" y2="292.233" gradientUnits="userSpaceOnUse"><stop stop-color="#474B49"/><stop offset=".53" stop-color="#1C1C1C"/><stop offset="1" stop-color="#101211"/></linearGradient><linearGradient id="paint3_linear_103_25" x1="244.5" x2="244.5" y1="66.08" y2="383.08" gradientUnits="userSpaceOnUse"><stop stop-color="#E1EBDC"/><stop offset="1" stop-color="#EBEBEA" stop-opacity="0"/></linearGradient></defs></svg>